<?xml version="1.0" encoding="UTF-8" standalone="no"?>
<!DOCTYPE svg PUBLIC "-//W3C//DTD SVG 1.1//EN" "http://www.w3.org/Graphics/SVG/1.1/DTD/svg11.dtd">
<svg width="100%" height="100%" viewBox="0 0 1000 1000" version="1.1" xmlns="http://www.w3.org/2000/svg" xmlns:xlink="http://www.w3.org/1999/xlink" xml:space="preserve" xmlns:serif="http://www.serif.com/" style="fill-rule:evenodd;clip-rule:evenodd;stroke-linejoin:round;stroke-miterlimit:1.41421;">
    <g transform="matrix(1,0,0,-1,387,632)">
        <path d="M47,-81C47,-91 50.667,-96 58,-96C60.667,-96 64,-95 68,-93C100,-73 124,-48 140,-18C151.333,2 157,22 157,42C157,61.333 151.667,77 141,89C135,96.333 126.667,100 116,100C107.333,100 98.667,97.667 90,93C82,88.333 73.167,81.5 63.5,72.5C53.833,63.5 48,56.333 46,51C44.667,45.667 44,35 44,19L47,-81ZM12,-170C9.333,-167.333 7,-117.5 5,-20.5C3,76.5 1.667,172.667 1,268L0,411C0.667,419.667 4.167,426.5 10.5,431.5C16.833,436.5 23.667,439 31,439C43.667,439 50,433.333 50,422C50,336.667 47.667,242.667 43,140C43,132 46.667,126.333 54,123C55.333,122.333 57,122 59,122C62.333,122 69.667,126.667 81,136C89.667,141.333 101,146 115,150C122.333,152 129.333,153 136,153C160,151.667 181,142.167 199,124.5C217,106.833 226,84.333 226,57C226,0.333 186,-56 106,-112C100,-116 88.167,-125.5 70.5,-140.5C52.833,-155.5 38.333,-166.333 27,-173C25,-174.333 23,-175 21,-175C17.667,-175 14.667,-173.333 12,-170Z" style="fill-rule:nonzero;"/>
    </g>
</svg>
