<?xml version="1.0" encoding="UTF-8" standalone="no"?>
<!DOCTYPE svg PUBLIC "-//W3C//DTD SVG 1.1//EN" "http://www.w3.org/Graphics/SVG/1.1/DTD/svg11.dtd">
<svg width="100%" height="100%" viewBox="0 0 1000 1000" version="1.1" xmlns="http://www.w3.org/2000/svg" xmlns:xlink="http://www.w3.org/1999/xlink" xml:space="preserve" xmlns:serif="http://www.serif.com/" style="fill-rule:evenodd;clip-rule:evenodd;stroke-linejoin:round;stroke-miterlimit:1.41421;">
    <g transform="matrix(1,0,0,-1,0,855)">
        <path d="M500,777L357,739L170,38C169.333,38 168.667,35.333 168,30C167.333,24.667 167,20.333 167,17C167,-6.333 175,-26.167 191,-42.5C207,-58.833 226.667,-67 250,-67L750,-67C773.333,-67 793,-58.833 809,-42.5C825,-26.167 833,-6.333 833,17C833,20.333 832.667,24.667 832,30C831.333,35.333 830.667,38 830,38L643,739L500,777ZM429,683L571,683L717,142L542,142L542,350L458,350L458,142L283,142L429,683ZM458,642L458,475L417,475L417,392L583,392L583,475L542,475L542,642L458,642Z" style="fill-rule:nonzero;"/>
    </g>
</svg>
