<?xml version="1.0" encoding="UTF-8" standalone="no"?>
<!DOCTYPE svg PUBLIC "-//W3C//DTD SVG 1.1//EN" "http://www.w3.org/Graphics/SVG/1.1/DTD/svg11.dtd">
<svg width="100%" height="100%" viewBox="0 0 1000 1000" version="1.1" xmlns="http://www.w3.org/2000/svg" xmlns:xlink="http://www.w3.org/1999/xlink" xml:space="preserve" xmlns:serif="http://www.serif.com/" style="fill-rule:evenodd;clip-rule:evenodd;stroke-linejoin:round;stroke-miterlimit:1.41421;">
    <g transform="matrix(1,0,0,-1,375.5,501)">
        <path d="M168,-45C170.667,-33 172,-11.667 172,19C172,50.333 170.667,69.333 168,76C166,80 161,82 153,82C139.667,82 124.333,77.667 107,69C89.667,60.333 80.667,52 80,44C78,36 77,11.333 77,-30C77,-59.333 78,-76 80,-80C81.333,-83.333 85.333,-85 92,-85C104.667,-85 119.833,-80.667 137.5,-72C155.167,-63.333 165.333,-54.333 168,-45ZM237,118L211,108C207.667,106.667 204.667,102.667 202,96C199.333,89.333 198,83.667 198,79L198,-14C198,-26 202.333,-32 211,-32L237,-22C238.333,-21.333 240,-21 242,-21C246.667,-21 249,-23.667 249,-29L249,-100C249,-108 245,-113.667 237,-117C223,-122.333 213.667,-126 209,-128C201.667,-131.333 198,-139 198,-151L198,-293C198,-300.333 192.333,-304 181,-304C172.333,-304 168,-300.333 168,-293L168,-168C168,-164.667 166.667,-160.833 164,-156.5C161.333,-152.167 158.333,-150 155,-150C154.333,-150 153.667,-150.167 153,-150.5C152.333,-150.833 151.667,-151 151,-151L90,-176C83.333,-178.667 80,-186 80,-198L80,-337C80,-344.333 74.333,-348 63,-348C54.333,-348 50,-344.333 50,-337L50,-214C50,-210.667 48.833,-207.167 46.5,-203.5C44.167,-199.833 41.333,-198 38,-198C36.667,-198 35.667,-198.333 35,-199L12,-208L10,-208L8,-209C2.667,-209 0,-206 0,-200L0,-129C0,-120.333 4,-115 12,-113C26,-107 35,-103.333 39,-102C46.333,-98 50,-90.333 50,-79L50,20C50,24 48.667,28 46,32C43.333,36 40.333,38 37,38L36,38L34,37L12,27L10,26L8,26C2.667,26 0,29 0,35L0,106C0,114.667 4,120 12,122C25.333,127.333 34,131 38,133C46,137 50,146 50,160L50,295C50,302.333 55.333,306 66,306C75.333,306 80,302.333 80,295L80,175C80,161.667 84,155 92,155C114.667,160.333 135.667,168.667 155,180C162.333,184.667 166.667,194.333 168,209L168,339C168,346.333 173.333,350 184,350C193.333,350 198,346.333 198,339L198,217C198,208.333 202.667,204 212,204L237,213C238.333,213.667 240,214 242,214C246.667,214 249,211.333 249,206L249,135C249,127 245,121.333 237,118Z" style="fill-rule:nonzero;"/>
    </g>
</svg>
